<svg xmlns="http://www.w3.org/2000/svg" viewBox="0 0 448 512" fill="#3776AB"><path d="M439.8 200.5c-7.7-30.9-22.3-54.2-53.4-54.2h-40.1v47.4c0 36.8-31.2 67.8-66.8 67.8H172.7c-29.2 0-53.4 25-53.4 54.3v101.8c0 29 25.2 46 53.4 54.3 33.8 9.9 66.3 11.7 106.8 0 26.9-7.8 53.4-23.5 53.4-54.3v-40.7H226.2v-13.6h160.2c31.1 0 42.6-21.7 53.4-54.2 11.2-33.9 11-66.3 0-106.8zM252.9 442.7c-8 0-14.5-6.5-14.5-14.5s6.5-14.5 14.5-14.5 14.5 6.5 14.5 14.5-6.5 14.5-14.5 14.5zM8.2 311.5c7.7 30.9 22.3 54.2 53.4 54.2h40.1v-47.4c0-36.8 31.2-67.8 66.8-67.8h106.8c29.2 0 53.4-25 53.4-54.3V94.3c0-29-25.2-46-53.4-54.3-33.8-9.9-66.3-11.7-106.8 0-26.9 7.8-53.4 23.5-53.4 54.3v40.7h106.8v13.6H61.6c-31.1 0-42.6 21.7-53.4 54.2-11.2 33.9-11 66.3 0 106.8zM195.1 69.3c8 0 14.5 6.5 14.5 14.5s-6.5 14.5-14.5 14.5-14.5-6.5-14.5-14.5 6.5-14.5 14.5-14.5z"/></svg>
